<mxfile host="app.diagrams.net" modified="2023-11-10T22:15:05.329Z" agent="Mozilla/5.0 (Windows NT 10.0; Win64; x64) AppleWebKit/537.36 (KHTML, like Gecko) Chrome/119.0.0.0 Safari/537.36" etag="Uq5NntTIomvtCgrSrOjg" version="22.1.0" type="device">
  <diagram name="Сторінка-1" id="3trLSXVSUBFXr7-GGOfx">
    <mxGraphModel dx="1858" dy="1063" grid="1" gridSize="10" guides="1" tooltips="1" connect="1" arrows="1" fold="1" page="1" pageScale="1" pageWidth="827" pageHeight="1169" math="0" shadow="0">
      <root>
        <mxCell id="0" />
        <mxCell id="1" parent="0" />
        <mxCell id="UBpmfuisD888ui_U4EgL-5" style="edgeStyle=orthogonalEdgeStyle;rounded=0;orthogonalLoop=1;jettySize=auto;html=1;exitX=0.5;exitY=1;exitDx=0;exitDy=0;" parent="1" source="UBpmfuisD888ui_U4EgL-1" target="UBpmfuisD888ui_U4EgL-4" edge="1">
          <mxGeometry relative="1" as="geometry" />
        </mxCell>
        <mxCell id="UBpmfuisD888ui_U4EgL-1" value="Start" style="ellipse;whiteSpace=wrap;html=1;" parent="1" vertex="1">
          <mxGeometry x="324" y="20" width="90" height="40" as="geometry" />
        </mxCell>
        <mxCell id="UBpmfuisD888ui_U4EgL-2" value="End" style="ellipse;whiteSpace=wrap;html=1;" parent="1" vertex="1">
          <mxGeometry x="324" y="420" width="90" height="40" as="geometry" />
        </mxCell>
        <mxCell id="UBpmfuisD888ui_U4EgL-7" style="edgeStyle=orthogonalEdgeStyle;rounded=0;orthogonalLoop=1;jettySize=auto;html=1;exitX=0.5;exitY=1;exitDx=0;exitDy=0;entryX=0.5;entryY=0;entryDx=0;entryDy=0;" parent="1" source="UBpmfuisD888ui_U4EgL-4" target="UBpmfuisD888ui_U4EgL-6" edge="1">
          <mxGeometry relative="1" as="geometry" />
        </mxCell>
        <mxCell id="UBpmfuisD888ui_U4EgL-4" value="Set Array" style="rounded=0;whiteSpace=wrap;html=1;" parent="1" vertex="1">
          <mxGeometry x="309" y="80" width="120" height="60" as="geometry" />
        </mxCell>
        <mxCell id="UBpmfuisD888ui_U4EgL-9" style="edgeStyle=orthogonalEdgeStyle;rounded=0;orthogonalLoop=1;jettySize=auto;html=1;exitX=0.5;exitY=1;exitDx=0;exitDy=0;entryX=0.5;entryY=0;entryDx=0;entryDy=0;" parent="1" source="UBpmfuisD888ui_U4EgL-6" target="UBpmfuisD888ui_U4EgL-8" edge="1">
          <mxGeometry relative="1" as="geometry" />
        </mxCell>
        <mxCell id="UBpmfuisD888ui_U4EgL-6" value="Output Array" style="shape=parallelogram;perimeter=parallelogramPerimeter;whiteSpace=wrap;html=1;fixedSize=1;" parent="1" vertex="1">
          <mxGeometry x="309" y="170" width="120" height="50" as="geometry" />
        </mxCell>
        <mxCell id="UBpmfuisD888ui_U4EgL-11" style="edgeStyle=orthogonalEdgeStyle;rounded=0;orthogonalLoop=1;jettySize=auto;html=1;exitX=0.5;exitY=1;exitDx=0;exitDy=0;entryX=0.5;entryY=0;entryDx=0;entryDy=0;" parent="1" source="UBpmfuisD888ui_U4EgL-8" target="UBpmfuisD888ui_U4EgL-10" edge="1">
          <mxGeometry relative="1" as="geometry" />
        </mxCell>
        <mxCell id="UBpmfuisD888ui_U4EgL-8" value="Bucket_sort(array)" style="shape=process;whiteSpace=wrap;html=1;backgroundOutline=1;" parent="1" vertex="1">
          <mxGeometry x="309" y="250" width="120" height="60" as="geometry" />
        </mxCell>
        <mxCell id="UBpmfuisD888ui_U4EgL-12" style="edgeStyle=orthogonalEdgeStyle;rounded=0;orthogonalLoop=1;jettySize=auto;html=1;exitX=0.5;exitY=1;exitDx=0;exitDy=0;entryX=0.5;entryY=0;entryDx=0;entryDy=0;" parent="1" source="UBpmfuisD888ui_U4EgL-10" target="UBpmfuisD888ui_U4EgL-2" edge="1">
          <mxGeometry relative="1" as="geometry" />
        </mxCell>
        <mxCell id="UBpmfuisD888ui_U4EgL-10" value="Output sorted array" style="shape=parallelogram;perimeter=parallelogramPerimeter;whiteSpace=wrap;html=1;fixedSize=1;" parent="1" vertex="1">
          <mxGeometry x="309" y="330" width="120" height="60" as="geometry" />
        </mxCell>
        <mxCell id="UBpmfuisD888ui_U4EgL-15" style="edgeStyle=orthogonalEdgeStyle;rounded=0;orthogonalLoop=1;jettySize=auto;html=1;exitX=0.5;exitY=1;exitDx=0;exitDy=0;" parent="1" source="UBpmfuisD888ui_U4EgL-17" target="UBpmfuisD888ui_U4EgL-16" edge="1">
          <mxGeometry relative="1" as="geometry">
            <mxPoint x="590.4285714285716" y="110" as="targetPoint" />
          </mxGeometry>
        </mxCell>
        <mxCell id="UBpmfuisD888ui_U4EgL-14" value="Bucket_sort(array)" style="ellipse;whiteSpace=wrap;html=1;" parent="1" vertex="1">
          <mxGeometry x="540" y="15" width="100" height="55" as="geometry" />
        </mxCell>
        <mxCell id="UBpmfuisD888ui_U4EgL-19" style="edgeStyle=orthogonalEdgeStyle;rounded=0;orthogonalLoop=1;jettySize=auto;html=1;exitX=0.5;exitY=1;exitDx=0;exitDy=0;" parent="1" source="UBpmfuisD888ui_U4EgL-16" target="UBpmfuisD888ui_U4EgL-16" edge="1">
          <mxGeometry relative="1" as="geometry">
            <mxPoint x="720" y="270" as="targetPoint" />
            <Array as="points">
              <mxPoint x="590" y="390" />
              <mxPoint x="720" y="390" />
              <mxPoint x="720" y="250" />
            </Array>
          </mxGeometry>
        </mxCell>
        <mxCell id="wNneSb6-vs7b3TMgxCrt-3" style="edgeStyle=orthogonalEdgeStyle;rounded=0;orthogonalLoop=1;jettySize=auto;html=1;exitX=0;exitY=0.5;exitDx=0;exitDy=0;entryX=0.5;entryY=0;entryDx=0;entryDy=0;" edge="1" parent="1" source="UBpmfuisD888ui_U4EgL-16" target="wNneSb6-vs7b3TMgxCrt-4">
          <mxGeometry relative="1" as="geometry">
            <mxPoint x="570" y="490" as="targetPoint" />
            <Array as="points">
              <mxPoint x="510" y="250" />
              <mxPoint x="510" y="450" />
            </Array>
          </mxGeometry>
        </mxCell>
        <mxCell id="UBpmfuisD888ui_U4EgL-16" value="i &amp;lt; array.size()" style="rhombus;whiteSpace=wrap;html=1;" parent="1" vertex="1">
          <mxGeometry x="530" y="210" width="120" height="80" as="geometry" />
        </mxCell>
        <mxCell id="UBpmfuisD888ui_U4EgL-18" value="" style="edgeStyle=orthogonalEdgeStyle;rounded=0;orthogonalLoop=1;jettySize=auto;html=1;exitX=0.5;exitY=1;exitDx=0;exitDy=0;" parent="1" source="UBpmfuisD888ui_U4EgL-14" target="UBpmfuisD888ui_U4EgL-17" edge="1">
          <mxGeometry relative="1" as="geometry">
            <mxPoint x="600" y="190" as="targetPoint" />
            <mxPoint x="590" y="70" as="sourcePoint" />
          </mxGeometry>
        </mxCell>
        <mxCell id="UBpmfuisD888ui_U4EgL-17" value="Initialize buff and buff_num&amp;nbsp;" style="rounded=0;whiteSpace=wrap;html=1;" parent="1" vertex="1">
          <mxGeometry x="530" y="100" width="120" height="60" as="geometry" />
        </mxCell>
        <mxCell id="wNneSb6-vs7b3TMgxCrt-1" value="Place each element in its bucket by its index" style="rounded=0;whiteSpace=wrap;html=1;" vertex="1" parent="1">
          <mxGeometry x="540" y="350" width="120" height="60" as="geometry" />
        </mxCell>
        <mxCell id="wNneSb6-vs7b3TMgxCrt-2" value="YES" style="text;html=1;strokeColor=none;fillColor=none;align=center;verticalAlign=middle;whiteSpace=wrap;rounded=0;" vertex="1" parent="1">
          <mxGeometry x="580" y="290" width="60" height="30" as="geometry" />
        </mxCell>
        <mxCell id="wNneSb6-vs7b3TMgxCrt-6" style="edgeStyle=orthogonalEdgeStyle;rounded=0;orthogonalLoop=1;jettySize=auto;html=1;exitX=0.5;exitY=1;exitDx=0;exitDy=0;entryX=0.5;entryY=0;entryDx=0;entryDy=0;" edge="1" parent="1" source="wNneSb6-vs7b3TMgxCrt-4" target="wNneSb6-vs7b3TMgxCrt-5">
          <mxGeometry relative="1" as="geometry" />
        </mxCell>
        <mxCell id="wNneSb6-vs7b3TMgxCrt-34" style="edgeStyle=orthogonalEdgeStyle;rounded=0;orthogonalLoop=1;jettySize=auto;html=1;exitX=0;exitY=0.5;exitDx=0;exitDy=0;entryX=0.5;entryY=0;entryDx=0;entryDy=0;" edge="1" parent="1" source="wNneSb6-vs7b3TMgxCrt-4" target="wNneSb6-vs7b3TMgxCrt-26">
          <mxGeometry relative="1" as="geometry">
            <Array as="points">
              <mxPoint x="500" y="490" />
              <mxPoint x="500" y="640" />
            </Array>
          </mxGeometry>
        </mxCell>
        <mxCell id="wNneSb6-vs7b3TMgxCrt-4" value="j = 0;j &amp;lt; buff.size()" style="rhombus;whiteSpace=wrap;html=1;" vertex="1" parent="1">
          <mxGeometry x="520" y="450" width="140" height="80" as="geometry" />
        </mxCell>
        <mxCell id="wNneSb6-vs7b3TMgxCrt-11" style="edgeStyle=orthogonalEdgeStyle;rounded=0;orthogonalLoop=1;jettySize=auto;html=1;exitX=1;exitY=0.5;exitDx=0;exitDy=0;entryX=1;entryY=0.5;entryDx=0;entryDy=0;" edge="1" parent="1" source="wNneSb6-vs7b3TMgxCrt-5" target="wNneSb6-vs7b3TMgxCrt-4">
          <mxGeometry relative="1" as="geometry" />
        </mxCell>
        <mxCell id="wNneSb6-vs7b3TMgxCrt-5" value="Selection_sort(buff[j])" style="shape=process;whiteSpace=wrap;html=1;backgroundOutline=1;size=0.08333333333333333;" vertex="1" parent="1">
          <mxGeometry x="525" y="570" width="130" height="60" as="geometry" />
        </mxCell>
        <mxCell id="wNneSb6-vs7b3TMgxCrt-7" value="NO" style="text;html=1;strokeColor=none;fillColor=none;align=center;verticalAlign=middle;whiteSpace=wrap;rounded=0;" vertex="1" parent="1">
          <mxGeometry x="490" y="220" width="60" height="30" as="geometry" />
        </mxCell>
        <mxCell id="wNneSb6-vs7b3TMgxCrt-9" value="YES" style="text;html=1;strokeColor=none;fillColor=none;align=center;verticalAlign=middle;whiteSpace=wrap;rounded=0;" vertex="1" parent="1">
          <mxGeometry x="630" y="540" width="60" height="30" as="geometry" />
        </mxCell>
        <mxCell id="wNneSb6-vs7b3TMgxCrt-17" style="edgeStyle=orthogonalEdgeStyle;rounded=0;orthogonalLoop=1;jettySize=auto;html=1;exitX=0.5;exitY=1;exitDx=0;exitDy=0;entryX=0.5;entryY=0;entryDx=0;entryDy=0;" edge="1" parent="1" source="wNneSb6-vs7b3TMgxCrt-14" target="wNneSb6-vs7b3TMgxCrt-16">
          <mxGeometry relative="1" as="geometry" />
        </mxCell>
        <mxCell id="wNneSb6-vs7b3TMgxCrt-14" value="Selection_sort(vector&amp;lt;int&amp;gt; nums)" style="ellipse;whiteSpace=wrap;html=1;" vertex="1" parent="1">
          <mxGeometry x="60" y="15" width="160" height="45" as="geometry" />
        </mxCell>
        <mxCell id="wNneSb6-vs7b3TMgxCrt-20" style="edgeStyle=orthogonalEdgeStyle;rounded=0;orthogonalLoop=1;jettySize=auto;html=1;exitX=0.5;exitY=1;exitDx=0;exitDy=0;entryX=0.5;entryY=0;entryDx=0;entryDy=0;" edge="1" parent="1" source="wNneSb6-vs7b3TMgxCrt-16" target="wNneSb6-vs7b3TMgxCrt-19">
          <mxGeometry relative="1" as="geometry" />
        </mxCell>
        <mxCell id="wNneSb6-vs7b3TMgxCrt-16" value="Initialize buff_num&amp;nbsp;" style="rounded=0;whiteSpace=wrap;html=1;" vertex="1" parent="1">
          <mxGeometry x="80" y="90" width="120" height="60" as="geometry" />
        </mxCell>
        <mxCell id="wNneSb6-vs7b3TMgxCrt-18" style="edgeStyle=orthogonalEdgeStyle;rounded=0;orthogonalLoop=1;jettySize=auto;html=1;exitX=0.5;exitY=1;exitDx=0;exitDy=0;" edge="1" parent="1" source="wNneSb6-vs7b3TMgxCrt-16" target="wNneSb6-vs7b3TMgxCrt-16">
          <mxGeometry relative="1" as="geometry" />
        </mxCell>
        <mxCell id="wNneSb6-vs7b3TMgxCrt-22" style="edgeStyle=orthogonalEdgeStyle;rounded=0;orthogonalLoop=1;jettySize=auto;html=1;exitX=0.5;exitY=1;exitDx=0;exitDy=0;" edge="1" parent="1" source="wNneSb6-vs7b3TMgxCrt-19">
          <mxGeometry relative="1" as="geometry">
            <mxPoint x="140.11764705882354" y="320" as="targetPoint" />
          </mxGeometry>
        </mxCell>
        <mxCell id="wNneSb6-vs7b3TMgxCrt-19" value="i &amp;lt; nums.size()" style="rhombus;whiteSpace=wrap;html=1;" vertex="1" parent="1">
          <mxGeometry x="70" y="170" width="140" height="80" as="geometry" />
        </mxCell>
        <mxCell id="wNneSb6-vs7b3TMgxCrt-28" style="edgeStyle=orthogonalEdgeStyle;rounded=0;orthogonalLoop=1;jettySize=auto;html=1;exitX=1;exitY=0.5;exitDx=0;exitDy=0;entryX=1;entryY=0.5;entryDx=0;entryDy=0;" edge="1" parent="1" source="wNneSb6-vs7b3TMgxCrt-23" target="wNneSb6-vs7b3TMgxCrt-19">
          <mxGeometry relative="1" as="geometry" />
        </mxCell>
        <mxCell id="wNneSb6-vs7b3TMgxCrt-23" value="Find minimum value index&lt;br&gt;Add minimum value to buff_num&lt;br&gt;Delete this value from nums" style="rounded=0;whiteSpace=wrap;html=1;" vertex="1" parent="1">
          <mxGeometry x="80" y="290" width="120" height="90" as="geometry" />
        </mxCell>
        <mxCell id="wNneSb6-vs7b3TMgxCrt-24" value="Return buff_num" style="ellipse;whiteSpace=wrap;html=1;" vertex="1" parent="1">
          <mxGeometry x="90" y="400" width="100" height="60" as="geometry" />
        </mxCell>
        <mxCell id="wNneSb6-vs7b3TMgxCrt-27" style="edgeStyle=orthogonalEdgeStyle;rounded=0;orthogonalLoop=1;jettySize=auto;html=1;exitX=1;exitY=0.5;exitDx=0;exitDy=0;entryX=1;entryY=0.5;entryDx=0;entryDy=0;" edge="1" parent="1" source="wNneSb6-vs7b3TMgxCrt-26" target="wNneSb6-vs7b3TMgxCrt-35">
          <mxGeometry relative="1" as="geometry">
            <mxPoint x="689.9999999999998" y="820" as="targetPoint" />
          </mxGeometry>
        </mxCell>
        <mxCell id="wNneSb6-vs7b3TMgxCrt-42" style="edgeStyle=orthogonalEdgeStyle;rounded=0;orthogonalLoop=1;jettySize=auto;html=1;exitX=0;exitY=0.5;exitDx=0;exitDy=0;" edge="1" parent="1">
          <mxGeometry relative="1" as="geometry">
            <mxPoint x="550" y="1050" as="targetPoint" />
            <mxPoint x="499.9999999999998" y="690" as="sourcePoint" />
            <Array as="points">
              <mxPoint x="480" y="690" />
              <mxPoint x="480" y="1040" />
              <mxPoint x="550" y="1040" />
            </Array>
          </mxGeometry>
        </mxCell>
        <mxCell id="wNneSb6-vs7b3TMgxCrt-43" style="edgeStyle=orthogonalEdgeStyle;rounded=0;orthogonalLoop=1;jettySize=auto;html=1;exitX=0;exitY=0.5;exitDx=0;exitDy=0;" edge="1" parent="1" source="wNneSb6-vs7b3TMgxCrt-26">
          <mxGeometry relative="1" as="geometry">
            <mxPoint x="499.9999999999998" y="690.5882352941176" as="targetPoint" />
          </mxGeometry>
        </mxCell>
        <mxCell id="wNneSb6-vs7b3TMgxCrt-26" value="i = 0; i &amp;lt; buff.size()" style="rhombus;whiteSpace=wrap;html=1;" vertex="1" parent="1">
          <mxGeometry x="520" y="650" width="140" height="80" as="geometry" />
        </mxCell>
        <mxCell id="wNneSb6-vs7b3TMgxCrt-29" style="edgeStyle=orthogonalEdgeStyle;rounded=0;orthogonalLoop=1;jettySize=auto;html=1;exitX=0;exitY=0.5;exitDx=0;exitDy=0;entryX=0;entryY=0.5;entryDx=0;entryDy=0;" edge="1" parent="1" source="wNneSb6-vs7b3TMgxCrt-19" target="wNneSb6-vs7b3TMgxCrt-24">
          <mxGeometry relative="1" as="geometry" />
        </mxCell>
        <mxCell id="wNneSb6-vs7b3TMgxCrt-30" value="NO" style="text;html=1;strokeColor=none;fillColor=none;align=center;verticalAlign=middle;whiteSpace=wrap;rounded=0;" vertex="1" parent="1">
          <mxGeometry x="30" y="190" width="60" height="30" as="geometry" />
        </mxCell>
        <mxCell id="wNneSb6-vs7b3TMgxCrt-31" value="YES" style="text;html=1;strokeColor=none;fillColor=none;align=center;verticalAlign=middle;whiteSpace=wrap;rounded=0;" vertex="1" parent="1">
          <mxGeometry x="120" y="250" width="60" height="30" as="geometry" />
        </mxCell>
        <mxCell id="wNneSb6-vs7b3TMgxCrt-40" style="edgeStyle=orthogonalEdgeStyle;rounded=0;orthogonalLoop=1;jettySize=auto;html=1;exitX=0.5;exitY=1;exitDx=0;exitDy=0;entryX=0.5;entryY=0;entryDx=0;entryDy=0;" edge="1" parent="1" source="wNneSb6-vs7b3TMgxCrt-35" target="wNneSb6-vs7b3TMgxCrt-38">
          <mxGeometry relative="1" as="geometry" />
        </mxCell>
        <mxCell id="wNneSb6-vs7b3TMgxCrt-41" style="edgeStyle=orthogonalEdgeStyle;rounded=0;orthogonalLoop=1;jettySize=auto;html=1;exitX=0.5;exitY=0;exitDx=0;exitDy=0;entryX=0.5;entryY=1;entryDx=0;entryDy=0;" edge="1" parent="1" source="wNneSb6-vs7b3TMgxCrt-35" target="wNneSb6-vs7b3TMgxCrt-26">
          <mxGeometry relative="1" as="geometry" />
        </mxCell>
        <mxCell id="wNneSb6-vs7b3TMgxCrt-35" value="j = 0; j &amp;lt; buff[i].size()" style="rhombus;whiteSpace=wrap;html=1;" vertex="1" parent="1">
          <mxGeometry x="520" y="770" width="140" height="80" as="geometry" />
        </mxCell>
        <mxCell id="wNneSb6-vs7b3TMgxCrt-39" style="edgeStyle=orthogonalEdgeStyle;rounded=0;orthogonalLoop=1;jettySize=auto;html=1;exitX=0.5;exitY=1;exitDx=0;exitDy=0;entryX=0;entryY=0.5;entryDx=0;entryDy=0;" edge="1" parent="1" source="wNneSb6-vs7b3TMgxCrt-38" target="wNneSb6-vs7b3TMgxCrt-35">
          <mxGeometry relative="1" as="geometry" />
        </mxCell>
        <mxCell id="wNneSb6-vs7b3TMgxCrt-38" value="Add elements to buff_sort" style="rounded=0;whiteSpace=wrap;html=1;" vertex="1" parent="1">
          <mxGeometry x="530" y="910" width="120" height="60" as="geometry" />
        </mxCell>
        <mxCell id="wNneSb6-vs7b3TMgxCrt-44" value="Return buff_sort" style="ellipse;whiteSpace=wrap;html=1;" vertex="1" parent="1">
          <mxGeometry x="510" y="1050" width="90" height="60" as="geometry" />
        </mxCell>
      </root>
    </mxGraphModel>
  </diagram>
</mxfile>
